<?xml version="1.0" encoding="UTF-8" standalone="no"?>
<svg
   xmlns:dc="http://purl.org/dc/elements/1.1/"
   xmlns:cc="http://creativecommons.org/ns#"
   xmlns:rdf="http://www.w3.org/1999/02/22-rdf-syntax-ns#"
   xmlns:svg="http://www.w3.org/2000/svg"
   xmlns="http://www.w3.org/2000/svg"
   viewBox="0 0 888.34668 181.69333"
   height="181.69333"
   width="888.34668"
   xml:space="preserve"
   id="svg2"
   version="1.1"><metadata
     id="metadata8"><rdf:RDF><cc:Work
         rdf:about=""><dc:format>image/svg+xml</dc:format><dc:type
           rdf:resource="http://purl.org/dc/dcmitype/StillImage" /></cc:Work></rdf:RDF></metadata><defs
     id="defs6"><clipPath
       id="clipPath72"
       clipPathUnits="userSpaceOnUse"><path
         id="path70"
         d="M 4318.4,434.914 H 6131.9 V 983.281 H 4318.4 Z" /></clipPath></defs><g
     transform="matrix(1.3333333,0,0,-1.3333333,0,181.69333)"
     id="g10"><g
       transform="scale(0.1)"
       id="g12"><path
         id="path14"
         style="fill:#ffffff;fill-opacity:1;fill-rule:nonzero;stroke:none"
         d="m 782.098,676.551 h 115.687 c -5.672,90 -8.695,137.773 -9.058,146.699 -25.993,-36.445 -47.762,-67.34 -65.321,-90.641 z m -355.094,-248.785 45.074,53.632 288.371,362.782 31.211,40.597 c 9.102,11.922 21.953,29.055 38.528,51.403 43.57,-0.504 75.402,-0.746 95.511,-0.746 35.016,0 67.469,0.242 97.401,0.746 l 13.38,-155.317 31.74,-298.718 7.24,-54.379 c -42.87,0.496 -68.9,0.742 -78.105,0.742 -20.871,0 -51.636,1.887 -92.292,1.39 -0.094,40.973 -3.129,86.653 -9.09,146.653 h -187.5 c -33.11,-50 -68.153,-94.012 -105.11,-146.653 -46.101,0.497 -74.383,-0.324 -84.812,-0.324 -18.895,0 -49.414,-1.312 -91.547,-1.808" /><path
         id="path16"
         style="fill:#ffffff;fill-opacity:1;fill-rule:nonzero;stroke:none"
         d="m 1939.62,867.18 c -20.04,0 -39.46,-4.93 -58.27,-14.774 -18.8,-9.843 -34.87,-23.523 -48.21,-41.039 -13.33,-17.515 -22.64,-36.297 -27.93,-56.336 -4.87,-18.472 -5.37,-35.383 -1.48,-50.715 3.88,-15.336 12.79,-27.316 26.72,-35.945 13.93,-8.625 29.96,-12.937 48.08,-12.937 19.35,0 38.36,4.836 57.03,14.507 18.67,9.672 34.54,23.266 47.62,40.782 13.07,17.515 22.13,35.851 27.19,55.027 4.92,18.648 5.54,35.852 1.86,51.629 -3.68,15.773 -11.96,28.012 -24.82,36.73 -12.86,8.711 -28.79,13.071 -47.79,13.071 z m 25.47,78.683 c 27.88,0 53.73,-3.75 77.55,-11.242 23.81,-7.492 43.22,-19.473 58.22,-35.941 15,-16.469 24.47,-35.422 28.4,-56.86 3.93,-21.433 2.21,-46.097 -5.14,-73.98 -7.73,-29.277 -20.09,-56.168 -37.1,-80.645 -17,-24.484 -37.69,-45.269 -62.06,-62.347 -24.37,-17.078 -51.37,-29.582 -81,-37.512 -29.63,-7.93 -59.34,-11.895 -89.14,-11.895 -29.46,0 -56.66,3.887 -81.63,11.633 -24.97,7.746 -45.15,20.293 -60.52,37.645 -15.38,17.34 -24.45,36.64 -27.21,57.902 -2.75,21.262 -0.71,44.871 6.14,70.844 10.07,38.164 27.76,71.664 53.05,100.512 25.3,28.843 57.47,51.367 96.52,67.574 39.04,16.211 80.35,24.312 123.92,24.312" /><path
         id="path18"
         style="fill:#ffffff;fill-opacity:1;fill-rule:nonzero;stroke:none"
         d="m 2116.45,582.238 c 11.42,30.672 21.33,58.293 29.73,82.867 8.4,24.575 17.59,53.067 27.53,85.485 9.96,32.414 20.02,66.613 30.22,102.601 10.19,35.985 18.1,64.61 23.71,85.875 21.63,-0.523 39.17,-0.785 52.59,-0.785 13.93,0 31.02,0.395 51.27,1.18 20.24,0.781 39.87,1.176 58.86,1.176 22.3,0 41.94,-0.875 58.91,-2.617 12.74,-1.219 23.96,-3.75 33.67,-7.579 9.71,-3.836 17.49,-8.496 23.36,-13.988 5.87,-5.488 10.35,-11.633 13.43,-18.43 3.09,-6.796 4.78,-14.769 5.07,-23.918 0.28,-9.148 -0.95,-18.953 -3.71,-29.41 -3.08,-11.675 -7.45,-22.609 -13.1,-32.804 -5.65,-10.196 -12.84,-19.782 -21.57,-28.758 -8.73,-8.981 -18.79,-16.731 -30.19,-23.266 -11.4,-6.535 -26.71,-13.199 -45.93,-19.996 l 4.84,-33.199 c 1.4,-9.238 3.01,-18.649 4.84,-28.234 l 14.82,-76.594 c 0.7,-3.313 1.76,-9.848 3.19,-19.606 -28.64,0.348 -47.92,0.524 -57.85,0.524 -12.54,0 -33.14,-0.176 -61.8,-0.524 -0.39,9.063 -1.02,25.879 -1.86,50.453 -0.26,10.282 -0.69,18.211 -1.31,23.789 -0.93,12.372 -2.55,29.711 -4.86,52.02 l -7.45,73.98 c 8.95,-1.742 17.96,-2.613 27.02,-2.613 12.73,0 24.78,1.914 36.16,5.75 11.38,3.828 20.79,9.762 28.22,17.778 7.42,8.011 12.31,16.468 14.66,25.355 1.97,7.488 1.71,14.074 -0.81,19.738 -2.51,5.66 -7.71,9.891 -15.61,12.68 -7.89,2.781 -20.81,4.18 -38.76,4.18 -6.1,0 -12.45,-0.129 -19.05,-0.391 -6.61,-0.262 -14.29,-0.484 -23.05,-0.652 -11.66,-35.731 -25.13,-79.301 -40.42,-130.707 -15.28,-51.414 -29.7,-101.868 -43.27,-151.36 -29.05,0.348 -47.94,0.524 -56.65,0.524 -10.13,0 -28.41,-0.176 -54.85,-0.524" /><path
         id="path20"
         style="fill:#ffffff;fill-opacity:1;fill-rule:nonzero;stroke:none"
         d="m 2492.37,582.238 19.71,54.895 59.3,186.129 22.66,75.023 10.76,40.781 c 26.97,-0.351 50.83,-0.523 71.61,-0.523 14.84,0 35.73,0.172 62.71,0.523 l 58.06,-202.933 7.51,-29.813 c 9.69,29.285 22.53,70.344 38.53,123.172 15.99,52.821 26.65,89.352 31.99,109.574 21.32,-0.351 38.43,-0.523 51.31,-0.523 5.91,0 23.02,0.172 51.32,0.523 l -26.82,-77.898 -68.87,-216.453 -18.05,-62.477 c -22.58,0.348 -43.73,0.524 -63.43,0.524 -16.4,0 -39.11,-0.176 -68.15,-0.524 -4.55,17.078 -7.98,29.461 -10.31,37.137 l -24.2,74.531 c -8.01,24.407 -15.16,47.77 -21.45,70.086 -4.29,14.121 -8.45,29.637 -12.52,46.551 L 2625.7,686.574 2595.5,582.238 c -21.49,0.348 -37.89,0.524 -49.21,0.524 -9.57,0 -27.55,-0.176 -53.92,-0.524" /><path
         id="path22"
         style="fill:#ffffff;fill-opacity:1;fill-rule:nonzero;stroke:none"
         d="m 2141.27,536.836 c -22.4,-0.043 -44.79,-0.082 -67.09,-0.125 l -28.11,-111.242 c 22.31,0.109 44.7,0.219 67.14,0.332 l 28.06,111.035" /><path
         id="path24"
         style="fill:#ffffff;fill-opacity:1;fill-rule:nonzero;stroke:none"
         d="m 2037.87,536.648 c -22.53,-0.039 -44.92,-0.078 -67.08,-0.117 L 1942.6,424.992 c 22.19,0.098 44.58,0.199 67.13,0.305 l 28.14,111.351" /><path
         id="path26"
         style="fill:#ffffff;fill-opacity:1;fill-rule:nonzero;stroke:none"
         d="m 1934.47,536.473 c -22.68,-0.035 -45.06,-0.071 -67.08,-0.106 l -28.26,-111.816 c 22.05,0.09 44.44,0.183 67.13,0.281 l 28.21,111.641" /><path
         id="path28"
         style="fill:#ffffff;fill-opacity:1;fill-rule:nonzero;stroke:none"
         d="m 2244.67,537.047 c -22.28,-0.051 -44.66,-0.094 -67.09,-0.141 l -28.03,-110.918 c 22.43,0.117 44.82,0.239 67.15,0.364 l 27.97,110.695" /><path
         id="path30"
         style="fill:#ffffff;fill-opacity:1;fill-rule:nonzero;stroke:none"
         d="m 2348.08,537.277 c -22.15,-0.054 -44.53,-0.105 -67.09,-0.156 l -27.94,-110.562 c 22.54,0.132 44.94,0.265 67.15,0.402 l 27.88,110.316" /><path
         id="path32"
         style="fill:#ffffff;fill-opacity:1;fill-rule:nonzero;stroke:none"
         d="m 1831.08,536.313 c -22.89,-0.036 -45.27,-0.067 -67.08,-0.098 l -28.32,-112.07 c 21.85,0.082 44.25,0.168 67.12,0.257 l 28.28,111.911" /><path
         id="path34"
         style="fill:#ffffff;fill-opacity:1;fill-rule:nonzero;stroke:none"
         d="m 1499.15,835.613 c 14.37,0 29.66,-1.226 45.81,-3.582 l 35.87,113.324 c -25.18,3.317 -47.97,5.055 -68.47,5.278 l -29.22,-115.656 c 5.3,0.378 10.63,0.636 16.01,0.636" /><path
         id="path36"
         style="fill:#ffffff;fill-opacity:1;fill-rule:nonzero;stroke:none"
         d="m 2451.5,537.535 c -21.98,-0.058 -44.38,-0.117 -67.1,-0.172 l -27.85,-110.812 c 22.68,0.144 57.12,0 66.87,0 l 28.08,110.984" /><path
         id="path38"
         style="fill:#ffffff;fill-opacity:1;fill-rule:nonzero;stroke:none"
         d="m 1492.47,423.309 28.45,112.593 c -26.17,-0.027 -48.77,-0.05 -67.07,-0.07 l -28.49,-112.719 c 19.34,0.051 41.94,0.117 67.11,0.196" /><path
         id="path40"
         style="fill:#ffffff;fill-opacity:1;fill-rule:nonzero;stroke:none"
         d="M 1624.31,536.027 C 1600.43,536 1578,535.973 1557.23,535.945 l -28.44,-112.523 c 20.98,0.066 43.46,0.141 67.12,0.219 l 28.4,112.386" /><path
         id="path42"
         style="fill:#ffffff;fill-opacity:1;fill-rule:nonzero;stroke:none"
         d="m 1727.69,536.164 c -23.21,-0.031 -45.61,-0.059 -67.07,-0.09 l -28.39,-112.308 c 21.53,0.074 44,0.156 67.12,0.242 l 28.34,112.156" /><path
         id="path44"
         style="fill:#ffffff;fill-opacity:1;fill-rule:nonzero;stroke:none"
         d="m 1610.23,817.734 8.24,42.461 c 3.19,16.391 6.27,31.414 9.25,45.071 l 7.19,31.285 c -0.33,0.062 -0.64,0.113 -0.97,0.179 l -55.77,-111.062 c 9.78,-2.219 20.38,-4.816 32.06,-7.934" /><path
         id="path46"
         style="fill:#ffffff;fill-opacity:1;fill-rule:nonzero;stroke:none"
         d="m 1290.38,595.129 c -0.58,1.422 -1.35,2.687 -1.87,4.156 -4.15,11.559 -5.86,24.481 -5.3,38.668 l -159.25,-31.656 c -0.5,-13.133 0.01,-25.723 1.58,-37.742 2.49,-19.149 8.42,-36.754 17.71,-52.832 l 147.13,79.406" /><path
         id="path48"
         style="fill:#ffffff;fill-opacity:1;fill-rule:nonzero;stroke:none"
         d="m 2554.93,537.832 c -21.78,-0.066 -44.15,-0.133 -67.11,-0.199 l -27.73,-111.082 c 22.86,0.164 44.67,-0.176 66.58,0 l 28.26,111.281" /><path
         id="path50"
         style="fill:#ffffff;fill-opacity:1;fill-rule:nonzero;stroke:none"
         d="m 1134.67,674.984 152.72,-7.148 c 0.33,1.426 0.6,2.816 0.96,4.266 4.19,16.57 10.35,32.339 18.35,47.351 l -132.93,51.172 c -17.14,-29.18 -30.16,-61.066 -39.1,-95.641" /><path
         id="path52"
         style="fill:#ffffff;fill-opacity:1;fill-rule:nonzero;stroke:none"
         d="m 1417.54,535.793 c -10.04,-0.008 -16.02,-0.012 -16.99,-0.012 -13.71,0 -26.09,1.149 -37.31,3.317 l -54.41,-114.164 c 12.33,-1.196 24.96,-2.012 38.22,-2.012 3.49,0 18.28,0.031 41.99,0.094 l 28.5,112.777" /><path
         id="path54"
         style="fill:#ffffff;fill-opacity:1;fill-rule:nonzero;stroke:none"
         d="m 1333.87,548.492 c -2.46,1.203 -4.83,2.488 -7.09,3.863 -9.56,5.774 -17.52,12.887 -24.06,21.184 L 1182.99,470.551 c 17.76,-14.305 37.85,-25.172 60.3,-32.543 5.35,-1.758 10.98,-3.16 16.57,-4.613 l 74.01,115.097" /><path
         id="path56"
         style="fill:#ffffff;fill-opacity:1;fill-rule:nonzero;stroke:none"
         d="m 2658.37,538.188 c -21.35,-0.083 -43.85,-0.161 -67.12,-0.239 l -28.21,-111.398 h 67.28 l 28.05,111.637" /><path
         id="path58"
         style="fill:#ffffff;fill-opacity:1;fill-rule:nonzero;stroke:none"
         d="m 1325.73,749.129 c 2.02,2.652 4.05,5.297 6.21,7.894 10.46,12.618 21.89,23.739 34.27,33.399 l -72.26,101.801 c -8.99,-5.5 -17.92,-11.344 -26.77,-17.676 -9,-6.445 -17.73,-13.43 -25.98,-20.965 -8.65,-7.906 -16.67,-16.23 -24.39,-24.746 l 108.92,-79.707" /><path
         id="path60"
         style="fill:#ffffff;fill-opacity:1;fill-rule:nonzero;stroke:none"
         d="m 2761.83,538.645 c -20.55,-0.106 -43.02,-0.211 -67.13,-0.309 l -28.32,-111.785 c 23.67,0.238 64.82,0 67.15,0 l 28.3,112.094" /><path
         id="path62"
         style="fill:#ffffff;fill-opacity:1;fill-rule:nonzero;stroke:none"
         d="m 2855.37,539.383 c -16.85,-0.184 -29.52,-0.363 -57.19,-0.531 l -28.46,-112.301 c 25.01,0.332 57.14,0 57.14,0 l 28.51,112.832" /><path
         id="path64"
         style="fill:#ffffff;fill-opacity:1;fill-rule:nonzero;stroke:none"
         d="m 1393.54,808.418 c 4.52,2.504 9.1,4.902 13.83,7.082 14.23,6.563 28.83,11.496 43.79,14.848 l 1.42,116.715 c -19.94,-2.575 -39.91,-6.465 -59.9,-11.813 -10.25,-2.742 -20.41,-6.008 -30.48,-9.715 l 31.34,-117.117" /><g
         id="g66"><g
           clip-path="url(#clipPath72)"
           id="g68"><path
             id="path74"
             style="fill:#ffffff;fill-opacity:1;fill-rule:evenodd;stroke:none"
             d="m 5690.75,617.527 c 0,-100.902 -83.77,-182.613 -184.57,-182.613 -100.86,0 -182.62,81.758 -182.62,182.613 v 268.137 c 0,43.387 -38.19,43.703 -38.19,43.703 l 0.02,15.383 h 155.93 l 0.05,-15.383 c 0,0 -38.36,-0.316 -38.36,-42.679 l 0.01,-286.649 c 0,-60.875 49.34,-110.215 110.21,-110.215 60.82,0 108.95,49.285 108.95,110.211 0,66.664 0,285.117 0,285.117 0,43.899 -39.31,44.215 -39.31,44.215 l 0.04,15.383 h 146.48 l 0.09,-15.383 c 0,0 -38.73,-0.316 -38.73,-44.219 V 617.527" /><path
             id="path76"
             style="fill:#ffffff;fill-opacity:1;fill-rule:evenodd;stroke:none"
             d="m 4960.9,891.945 -0.07,-377.125 c 0,-53.093 43.52,-52.539 43.52,-52.539 l 0.03,-15.89 -158.15,0.047 0.04,15.843 c 0,0 35.02,-0.554 35.02,48.946 v 374.437 c 0,43.387 -42.65,43.703 -42.65,43.703 l 0.05,15.383 146.37,0.008 c 110.96,0 161.66,-46.594 179.99,-96.278 17.67,-47.093 8.96,-106.035 -29.19,-144.179 -19.19,-19.18 -44.16,-28.715 -44.16,-28.715 0,0 11.3,-5.125 34.42,-33.887 0,0 72.48,-94.836 108.73,-137.73 22.86,-26.336 47.84,-41.692 81.67,-41.024 l 2.64,-11.379 c -37.87,-21.3 -82.87,-22.398 -120.8,2.301 -70.2,46.324 -128.63,157.422 -158.02,186.801 -31.33,31.324 -52.58,32.484 -52.58,32.484 l 1.8,13.731 c 9.1,-1.418 61.55,-1.426 90.76,26.207 29.2,27.64 46.31,97.351 -4.27,151.113 -43.84,46.602 -108.05,34.031 -115.15,27.742" /><path
             id="path78"
             style="fill:#ffffff;fill-opacity:1;fill-rule:evenodd;stroke:none"
             d="m 4540.2,983.281 220.21,-491.566 c 16.52,-29.988 41.67,-29.434 41.67,-29.434 l 0.16,-15.902 h -163.19 l -0.13,15.902 c 0,0 48.35,-0.554 26.38,48.121 l -44.8,105.352 h -153.71 l -37.57,-107.926 c -17.06,-45.933 27.56,-45.547 27.56,-45.547 v -15.996 h -138.32 l -0.06,15.996 c 0,0 30.83,0.41 47.61,47.832 z m -59.08,-328.008 h 122.8 l -67.73,159.793 z" /><path
             id="path80"
             style="fill:#ffffff;fill-opacity:1;fill-rule:evenodd;stroke:none"
             d="m 5917.51,891.949 -0.03,-379.183 c 0,-51.039 41.12,-50.485 41.12,-50.485 l -0.09,-15.89 -157.49,-0.032 0.16,15.922 c 0,0 35.97,-0.554 35.97,48.43 l -0.69,374.953 c 0,43.387 -38.67,43.703 -38.67,43.703 l -0.03,15.383 143.83,0.008 c 110.96,0 163.29,-46.344 180.91,-96.278 26.05,-73.804 -7.32,-127.179 -36.15,-153.5 -70.85,-64.656 -142.82,-10.437 -142.82,-10.437 l 2.68,10.5 c 9.09,-1.418 61.49,-9.586 90.69,18.047 29.21,27.64 46.32,97.351 -4.27,151.113 -43.84,46.602 -108.02,34.039 -115.12,27.746" /></g></g><g
         transform="scale(10)"
         id="g82"><text
           id="text86"
           style="font-variant:normal;font-weight:normal;font-size:48px;font-family:'Times New Roman';-inkscape-font-specification:TimesNewRomanPSMT;writing-mode:lr-tb;fill:#ffffff;fill-opacity:1;fill-rule:nonzero;stroke:none"
           transform="matrix(1,0,0,-1,340.806,59.8375)"><tspan
             id="tspan84"
             y="0"
             x="0 24">by</tspan></text>
<text
           id="text90"
           style="font-variant:normal;font-weight:normal;font-size:12px;font-family:HelveticaNeueLTStd;-inkscape-font-specification:HelveticaNeueLTStd-Roman;writing-mode:lr-tb;fill:#ffffff;fill-opacity:1;fill-rule:nonzero;stroke:none"
           transform="matrix(1,0,0,-1,22.848,38.5582)"><tspan
             id="tspan88"
             y="0"
             x="0">™</tspan></text>
</g></g></g></svg>